<svg
xmlns="http://www.w3.org/2000/svg"
viewBox="0 0 24 24"
width="24"
height="24"
fill="white"
>
<path
    d="M12 2.163c3.204 0 3.584.012 4.849.07 1.366.062 2.633.341 3.608 1.317.975.975 1.255 2.242 1.317 3.608.058 1.265.07 1.645.07 4.849s-.012 3.584-.07 4.849c-.062 1.366-.341 2.633-1.317 3.608-.975.975-2.242 1.255-3.608 1.317-1.265.058-1.645.07-4.849.07s-3.584-.012-4.849-.07c-1.366-.062-2.633-.341-3.608-1.317-.975-.975-1.255-2.242-1.317-3.608-.058-1.265-.07-1.645-.07-4.849s.012-3.584.07-4.849c.062-1.366.341-2.633 1.317-3.608.975-.975 2.242-1.255 3.608-1.317 1.265-.058 1.645-.07 4.849-.07zm0-2.163c-3.259 0-3.667.012-4.947.071-1.702.077-2.987.37-4.057 1.44-1.07 1.07-1.363 2.355-1.44 4.057-.059 1.28-.071 1.688-.071 4.947s.012 3.667.071 4.947c.077 1.702.37 2.987 1.44 4.057 1.07 1.07 2.355 1.363 4.057 1.44 1.28.059 1.688.071 4.947.071s3.667-.012 4.947-.071c1.702-.077 2.987-.37 4.057-1.44 1.07-1.07 1.363-2.355 1.44-4.057.059-1.28.071-1.688.071-4.947s-.012-3.667-.071-4.947c-.077-1.702-.37-2.987-1.44-4.057-1.07-1.07-2.355-1.363-4.057-1.44-1.28-.059-1.688-.071-4.947-.071zm0 5.838a6.163 6.163 0 1 0 0 12.326 6.163 6.163 0 0 0 0-12.326zm0 10.163a3.927 3.927 0 1 1 0-7.854 3.927 3.927 0 0 1 0 7.854zm6.406-11.845a1.44 1.44 0 1 0 0-2.88 1.44 1.44 0 0 0 0 2.88z"
/>
</svg>